#!OML:ASF I:\Actors\actors\Patient Classification 2\Patient 1\Session 1\actor1.ASF
:FULLY-SPECIFIED
:DEGREES
450
root -0.381407 18.781 5.16241 17.9506 3.38912 -1.06177
lowerback 26.5583 0.198029 -1.67635
upperback 0.283995 -0.674635 -2.79873
thorax -14.6454 -0.318093 -2.02062
lowerneck -18.8686 3.94735 -0.191657
upperneck -3.62528 5.35968 -1.92386
head 2.10206 2.62858 -0.189029
rclavicle 8.74653e-015 -1.35174e-014
rhumerus -40.2864 9.65046 -94.075
rradius 117.838
rwrist 10.9456
rhand -4.24649 -51.7573
rfingers 7.12502
rthumb 21.5172 -80.5821
lclavicle 8.74653e-015 -1.35174e-014
lhumerus -36.5594 -17.5924 98.5862
lradius 112.07
lwrist -19.9257
lhand 23.5312 -12.0545
lfingers 7.12502
lthumb 47.8093 10.2468
rfemur -16.5965 1.79028 13.0338
rtibia 8.62229
rfoot -18.5449 -13.7753
rtoes -10.3969
lfemur -31.6222 0.701299 -13.3528
ltibia 29.9864
lfoot -16.2676 6.70869
ltoes -57.4199
451
root -0.38108 18.7809 5.14587 17.9701 3.49861 -1.15637
lowerback 26.4998 0.201352 -1.53907
upperback 0.423802 -0.593325 -2.61572
thorax -14.4415 -0.2817 -1.91397
lowerneck -18.6598 3.88572 -0.152888
upperneck -0.718023 5.30217 -1.70741
head 3.07959 2.57141 -0.0930415
rclavicle -5.96354e-015 -1.11319e-014
rhumerus -40.4403 9.49039 -94.2012
rradius 118.02
rwrist 10.7825
rhand -3.26673 -51.6263
rfingers 7.12502
rthumb 22.458 -80.3405
lclavicle -5.96354e-015 -1.11319e-014
lhumerus -36.0398 -17.8456 99.3156
lradius 112.166
lwrist -18.7334
lhand 24.1463 -11.9264
lfingers 7.12502
lthumb 48.3762 10.1089
rfemur -16.5004 1.73249 13.143
rtibia 8.29422
rfoot -18.3916 -13.8757
rtoes -10.5009
lfemur -31.7968 0.611969 -13.2252
ltibia 30.1056
lfoot -16.2619 6.79391
ltoes -57.419
452
root -0.369561 18.7771 5.11491 18.0139 3.69515 -1.14526
lowerback 26.521 0.131035 -1.22374
upperback 0.571686 -0.565298 -2.48789
thorax -14.2769 -0.284247 -1.95545
lowerneck -18.7929 3.6239 -0.361541
upperneck 2.69853 5.011 -1.17973
head 3.79164 2.41163 0.114154
rclavicle -1.98785e-015 -7.95139e-015
rhumerus -40.5405 9.44202 -94.2941
rradius 118.1
rwrist 10.6135
rhand -2.73616 -51.8433
rfingers 7.12502
rthumb 22.9672 -80.4951
lclavicle -1.98785e-015 -7.95139e-015
lhumerus -35.5124 -18.2845 99.941
lradius 112.232
lwrist -17.402
lhand 24.8363 -11.7168
lfingers 7.12502
lthumb 49.0109 10.0102
rfemur -16.4127 1.53136 13.0941
rtibia 7.84129
rfoot -18.1451 -14.083
rtoes -10.8729
lfemur -32.0678 0.120467 -13.1719
ltibia 30.226
lfoot -16.2783 7.15231
ltoes -57.3619
453
root -0.363423 18.7759 5.0982 18.0941 3.59233 -1.26014
lowerback 26.2272 0.226782 -1.0949
upperback 0.754237 -0.363829 -2.32318
thorax -13.8908 -0.193352 -1.90706
lowerneck -18.6292 3.25208 -0.480348
upperneck 5.55289 4.52753 -0.645985
head 4.6429 2.17294 0.288049
rclavicle -8.74653e-015 -6.36111e-015
rhumerus -40.6334 9.52833 -94.3155
rradius 118.098
rwrist 10.566
rhand -2.36673 -52.098
rfingers 7.12502
rthumb 23.3216 -80.7053
lclavicle -8.74653e-015 -6.36111e-015
lhumerus -35.1008 -18.8615 100.479
lradius 112.302
lwrist -16.0943
lhand 25.4764 -11.3722
lfingers 7.12502
lthumb 49.5982 10.059
rfemur -16.3677 1.66284 13.1232
rtibia 7.35031
rfoot -17.9963 -14.2835
rtoes -10.6951
lfemur -32.2455 0.0582509 -13.06
ltibia 30.3159
lfoot -16.3131 7.36794
ltoes -57.3518
454
root -0.366606 18.779 5.08875 18.0838 3.54765 -1.3267
lowerback 26.0146 0.341549 -1.06982
upperback 0.915222 -0.17154 -2.14705
thorax -13.5769 -0.0990415 -1.78331
lowerneck -18.3393 2.72145 -0.795
upperneck 8.13786 3.82096 0.150583
head 5.39214 1.85174 0.546643
rclavicle -9.14409e-015 -1.51076e-014
rhumerus -40.8385 9.68464 -94.3137
rradius 118.057
rwrist 10.6935
rhand -1.56526 -52.364
rfingers 7.12502
rthumb 24.0903 -80.8717
lclavicle -9.14409e-015 -1.51076e-014
lhumerus -34.8891 -19.603 100.98
lradius 112.33
lwrist -15.1413
lhand 25.9125 -11.2278
lfingers 7.12502
lthumb 49.9976 9.99626
rfemur -16.1791 1.75153 13.1776
rtibia 6.89249
rfoot -17.9222 -14.4659
rtoes -10.3964
lfemur -32.2653 -0.0150335 -12.9481
ltibia 30.3526
lfoot -16.3339 7.48876
ltoes -57.4306
455
root -0.370269 18.7819 5.08371 18.0838 3.4775 -1.36104
lowerback 25.8055 0.420061 -1.06869
upperback 1.0151 -0.0429676 -2.01754
thorax -13.3407 -0.0344374 -1.67701
lowerneck -17.8054 2.12079 -1.2729
upperneck 10.2225 2.98917 1.19383
head 5.95151 1.49795 0.887623
rclavicle 2.26615e-014 -1.90833e-014
rhumerus -41.1196 10.003 -94.4571
rradius 117.978
rwrist 10.9564
rhand -0.246337 -52.9534
rfingers 7.12502
rthumb 25.3544 -81.2878
lclavicle 2.26615e-014 -1.90833e-014
lhumerus -34.8669 -20.3498 101.294
lradius 112.334
lwrist -14.5743
lhand 26.2674 -11.3809
lfingers 7.12502
lthumb 50.3222 9.67102
rfemur -15.9731 1.85325 13.1937
rtibia 6.41417
rfoot -17.7857 -14.738
rtoes -10.8279
lfemur -32.2426 -0.0520962 -12.88
ltibia 30.335
lfoot -16.381 7.5508
ltoes -57.4062
456
root -0.373033 18.7826 5.0822 18.0497 3.37163 -1.41893
lowerback 25.6412 0.471944 -1.10112
upperback 1.10478 0.0383763 -1.89403
thorax -13.1432 0.0103643 -1.54194
lowerneck -17.0913 1.50514 -1.65009
upperneck 11.7813 2.09961 2.09492
head 6.33196 1.1186 1.1552
rclavicle -5.1684e-015 -4.77083e-015
rhumerus -41.3211 10.4303 -94.6799
rradius 117.838
rwrist 11.2878
rhand 0.07384 -52.8262
rfingers 7.12502
rthumb 25.6611 -81.1167
lclavicle -5.1684e-015 -4.77083e-015
lhumerus -34.977 -21.0169 101.416
lradius 112.415
lwrist -14.0352
lhand 26.7211 -11.4677
lfingers 7.12502
lthumb 50.7364 9.35962
rfemur -15.804 2.00063 13.2232
rtibia 6.09417
rfoot -17.7557 -14.9254
rtoes -11.1999
lfemur -32.1515 0.0209952 -12.827
ltibia 30.2871
lfoot -16.425 7.54122
ltoes -57.3304
457
root -0.374369 18.7822 5.0809 18.0037 3.33228 -1.44455
lowerback 25.5746 0.48035 -1.07632
upperback 1.14744 0.0732684 -1.79044
thorax -13.0559 0.029176 -1.44854
lowerneck -16.4433 0.827973 -2.09543
upperneck 13.3155 1.11514 3.00496
head 6.72984 0.696755 1.42991
rclavicle 4.37326e-015 -7.95139e-016
rhumerus -41.3871 10.816 -94.8462
rradius 117.613
rwrist 11.4481
rhand -0.608899 -51.8783
rfingers 7.12502
rthumb 25.007 -80.2616
lclavicle 4.37326e-015 -7.95139e-016
lhumerus -35.2163 -21.6761 101.462
lradius 112.525
lwrist -13.4614
lhand 27.1344 -11.5128
lfingers 7.12502
lthumb 51.1131 9.10525
rfemur -15.7357 2.0738 13.2305
rtibia 6.02905
rfoot -17.8234 -14.9569
rtoes -11.1573
lfemur -32.0707 0.0100909 -12.7879
ltibia 30.2607
lfoot -16.4725 7.5334
ltoes -57.274
458
root -0.374402 18.7798 5.0772 17.9302 3.44298 -1.40163
lowerback 25.6171 0.420834 -0.957481
upperback 1.14128 0.0415967 -1.70035
thorax -13.0866 0.0111124 -1.40349
lowerneck -15.9752 0.0847845 -2.74744
upperneck 15.0881 0.0428941 4.0002
head 7.25448 0.236662 1.76366
rclavicle -9.14409e-015 6.36111e-015
rhumerus -41.3163 11.1473 -94.8935
rradius 117.331
rwrist 11.2992
rhand -0.573427 -51.4002
rfingers 7.12502
rthumb 25.041 -79.7788
lclavicle -9.14409e-015 6.36111e-015
lhumerus -35.5303 -22.2955 101.502
lradius 112.575
lwrist -12.9476
lhand 27.6185 -11.5761
lfingers 7.12502
lthumb 51.5536 8.79103
rfemur -15.7339 1.98583 13.2109
rtibia 6.21781
rfoot -17.9461 -14.9221
rtoes -11.1751
lfemur -32.0249 -0.231115 -12.7649
ltibia 30.2794
lfoot -16.5321 7.58581
ltoes -57.2176
459
root -0.373881 18.7747 5.07718 17.8503 3.49979 -1.39095
lowerback 25.5584 0.369469 -0.884855
upperback 1.13935 0.0115422 -1.59423
thorax -13.0568 -0.00253724 -1.31256
lowerneck -16.1886 -0.845089 -4.32857
upperneck 17.6153 -1.29032 5.93082
head 8.19843 -0.296335 2.55281
rclavicle 5.56597e-015 1.43125e-014
rhumerus -41.3129 11.4812 -94.9505
rradius 117.186
rwrist 11.1509
rhand -0.113173 -51.4728
rfingers 7.12502
rthumb 25.482 -79.7891
lclavicle 5.56597e-015 1.43125e-014
lhumerus -35.8 -22.757 101.46
lradius 112.599
lwrist -12.4766
lhand 28.3194 -11.3407
lfingers 7.12502
lthumb 52.1898 8.65155
rfemur -15.858 1.96347 13.216
rtibia 6.66328
rfoot -18.1268 -14.872
rtoes -11.5975
lfemur -31.9825 -0.426556 -12.7235
ltibia 30.3515
lfoot -16.6083 7.67998
ltoes -57.2198
460
root -0.3732 18.7683 5.07818 17.723 3.53419 -1.38651
lowerback 25.5071 0.302143 -0.870943
upperback 1.15187 -0.0579274 -1.50045
thorax -13.0149 -0.0308948 -1.18776
lowerneck -15.6043 -1.40781 -4.45221
upperneck 18.8415 -2.17852 6.28147
head 8.56224 -0.689077 2.60445
rclavicle 1.59028e-015 -9.54166e-015
rhumerus -41.7377 11.7786 -95.2143
rradius 117.507
rwrist 11.2551
rhand 0.121999 -51.5168
rfingers 7.12502
rthumb 25.7072 -79.8007
lclavicle 1.59028e-015 -9.54166e-015
lhumerus -36.0205 -23.0865 101.265
lradius 112.645
lwrist -12.0472
lhand 29.2395 -10.7975
lfingers 7.12502
lthumb 53.0219 8.68101
rfemur -16.06 1.97012 13.2197
rtibia 7.35105
rfoot -18.3688 -14.7811
rtoes -12.2716
lfemur -31.9069 -0.613972 -12.6887
ltibia 30.4688
lfoot -16.6898 7.82656
ltoes -57.3119
461
root -0.374547 18.761 5.08257 17.5664 3.52277 -1.40993
lowerback 25.455 0.258926 -0.880804
upperback 1.16655 -0.103833 -1.41305
thorax -12.9694 -0.0474834 -1.06518
lowerneck -14.7609 -2.02746 -4.52034
upperneck 19.1982 -3.02347 6.10969
head 8.57914 -1.11907 2.462
rclavicle 1.98785e-015 -1.63003e-014
rhumerus -41.9449 11.994 -95.3547
rradius 117.742
rwrist 11.2253
rhand 0.705564 -51.9178
rfingers 7.12502
rthumb 26.266 -80.1197
lclavicle 1.98785e-015 -1.63003e-014
lhumerus -36.1815 -23.3769 101.006
lradius 112.667
lwrist -11.7834
lhand 30.261 -10.3121
lfingers 7.12502
lthumb 53.9415 8.56548
rfemur -16.2807 2.03534 13.2474
rtibia 8.14463
rfoot -18.6994 -14.6415
rtoes -12.852
lfemur -31.7993 -0.657115 -12.6542
ltibia 30.6172
lfoot -16.7752 7.86499
ltoes -57.3807
